<svg xmlns="http://www.w3.org/2000/svg" viewBox="0 0 48 48" fill="none">
  <defs>
    <linearGradient id="docker-grad" x1="0%" y1="0%" x2="100%" y2="100%">
      <stop offset="0%" style="stop-color:#00f5d4"/>
      <stop offset="100%" style="stop-color:#0db7ed"/>
    </linearGradient>
  </defs>
  <!-- 鲸鱼身体 -->
  <path d="M4 26 C4 20 12 16 24 16 C36 16 44 20 44 26 C44 32 36 36 24 36 C12 36 4 32 4 26 Z"
        fill="url(#docker-grad)" opacity="0.9"/>
  <!-- 鲸鱼喷水 -->
  <path d="M24 16 L22 8 M24 16 L24 6 M24 16 L26 8"
        stroke="url(#docker-grad)" stroke-width="2" stroke-linecap="round" opacity="0.6"/>
  <!-- 容器堆叠 -->
  <rect x="12" y="20" width="6" height="5" rx="1" fill="#0a0e14" opacity="0.3"/>
  <rect x="20" y="20" width="6" height="5" rx="1" fill="#0a0e14" opacity="0.3"/>
  <rect x="28" y="20" width="6" height="5" rx="1" fill="#0a0e14" opacity="0.3"/>
  <rect x="16" y="13" width="6" height="5" rx="1" fill="#0a0e14" opacity="0.3"/>
  <rect x="24" y="13" width="6" height="5" rx="1" fill="#0a0e14" opacity="0.3"/>
  <!-- 尾巴 -->
  <path d="M4 26 C0 26 -2 22 2 20"
        stroke="url(#docker-grad)" stroke-width="3" fill="none" stroke-linecap="round"/>
  <!-- 眼睛 -->
  <circle cx="38" cy="26" r="2" fill="#0a0e14" opacity="0.5"/>
</svg>
